<svg xmlns="http://www.w3.org/2000/svg" version="1.1" xmlns:xlink="http://www.w3.org/1999/xlink" width="41" height="40"><svg xmlns="http://www.w3.org/2000/svg" version="1.1" xmlns:xlink="http://www.w3.org/1999/xlink" width="41" height="40"><svg id="logo-44" width="41" height="40" viewBox="0 0 41 40" fill="none" xmlns="http://www.w3.org/2000/svg">
	<path d="M20 0C8.9543 0 0 8.9543 0 20C11.0457 20 20 11.0457 20 0Z" fill="#df9b8e" class="ccustom" data-darkreader-inline-fill="" style="--darkreader-inline-fill: var(--darkreader-text-df9b8e, #dd9688);"></path>
	<path d="M20 40C31.0457 40 40 31.0457 40 20C28.9543 20 20 28.9543 20 40Z" fill="#df9b8e" class="ccustom" data-darkreader-inline-fill="" style="--darkreader-inline-fill: var(--darkreader-text-df9b8e, #dd9688);"></path>
	<path d="M20 0C31.0457 0 40 8.9543 40 20C28.9543 20 20 11.0457 20 0Z" fill="#C96342" class="ccompli2" data-darkreader-inline-fill="" style="--darkreader-inline-fill: var(--darkreader-text-c96342, #ce7153);"></path>
	<path d="M20 40C8.9543 40 -9.65645e-07 31.0457 0 20C11.0457 20 20 28.9543 20 40Z" fill="#C96342" class="ccompli2" data-darkreader-inline-fill="" style="--darkreader-inline-fill: var(--darkreader-text-c96342, #ce7153);"></path>
</svg></svg><style>@media (prefers-color-scheme: light) { :root { filter: none; } }
@media (prefers-color-scheme: dark) { :root { filter: none; } }
</style></svg>